<svg xmlns="http://www.w3.org/2000/svg" xmlns:xlink="http://www.w3.org/1999/xlink" width="333.929" height="100.092" viewBox="0 0 333.929 100.092">
  <defs>
    <linearGradient id="linear-gradient" x1="0.583" y1="0.871" x2="0.399" y2="0.052" gradientUnits="objectBoundingBox">
      <stop offset="0" stop-color="#8fdaff"/>
      <stop offset="0.157" stop-color="#80ccfd"/>
      <stop offset="1" stop-color="#3487f4"/>
    </linearGradient>
  </defs>
  <g id="Layer_2" data-name="Layer 2" transform="translate(0 0.092)">
    <rect id="Rectangle_1" data-name="Rectangle 1" width="333.929" height="100" transform="translate(0)" fill="#fff"/>
    <image id="Rectangle_2" data-name="Rectangle 2" width="176.64" height="99.36" transform="translate(75.203 -0.092)" xlink:href="Layer%202-image.png"/>
    <path id="Path_1" data-name="Path 1" d="M82.391,91.458,80.638,92c.012.014.259.929.263.945l-2.542.454c-.012-.014-.707-.849-.713-.865l-1.978.119c0,.016-.375.914-.383.93l-2.651-.144c0-.017-.093-.94-.087-.955l-1.909-.332c-.01.015-.952.761-.968.775l-2.359-.722c.009-.014.536-.887.552-.9l-1.548-.727c-.019.012-1.383.491-1.408.5l-1.7-1.189c.019-.012,1.083-.7,1.106-.709l-.952-1.014c-.025.006-1.6.146-1.632.149l-.793-1.474c.027-.008,1.466-.407,1.493-.41l-.211-1.146c-.028,0-1.579-.221-1.608-.225l.244-1.536c.028,0,1.623-.05,1.65-.047l.56-1.1c-.025,0-1.316-.553-1.34-.563l1.24-1.364c.028.006,1.536.314,1.559.323l1.247-.894c-.021-.013-.851-.8-.866-.817l2.047-.984c.022.01,1.139.591,1.225.639l1.749-.544c-.011-.015-.258-.93-.262-.946l2.545-.455c.012.015.707.851.712.867l1.978-.119c0-.016.376-.915.383-.931l2.652.144c0,.017.089.939.085.955l1.91.332c.01-.015.952-.761.97-.775l2.355.721c-.01.016-.536.888-.552.9l1.55.727c.02-.011,1.384-.49,1.409-.5l1.7,1.188c-.019.012-1.083.7-1.106.709L87.205,82c.025-.006,1.6-.146,1.633-.149l.789,1.475c-.026.006-1.464.406-1.492.409l.213,1.146c.028,0,1.578.221,1.606.225l-.241,1.536c-.028,0-1.623.05-1.651.047L87.5,87.8c.025.005,1.316.553,1.34.563L87.6,89.725c-.028-.006-1.537-.313-1.559-.323l-1.25.895c.022.012.851.8.866.816l-2.045.984C83.594,92.087,82.476,91.507,82.391,91.458ZM74.623,89.3c4.019.219,7.572-1.49,7.936-3.818.205-1.306-.639-2.53-2.129-3.39a10.194,10.194,0,0,0-4.488-1.22c-4.019-.219-7.573,1.491-7.937,3.818-.2,1.306.639,2.53,2.13,3.391A10.2,10.2,0,0,0,74.623,89.3Z" opacity="0.3" fill="url(#linear-gradient)" style="mix-blend-mode: multiply;isolation: isolate"/>
  </g>
</svg>
